<svg width="48" height="48" viewBox="0 0 48 48" fill="none" xmlns="http://www.w3.org/2000/svg">
<path d="M46.256 18.4434H35.8854C33.0823 12.9755 30.1159 8.72727 26.0796 8.72727C20.8249 8.72727 18.3587 13.3888 15.9715 17.9293L15.7635 18.3275H3.81818V21.0236H10.7764C13.2328 21.0236 13.733 21.8651 13.733 21.8651C11.8065 24.9089 9.48876 27.9175 5.62583 27.9175H3.81818V30.7447H5.64069C13.1288 30.7447 16.3974 24.5663 19.0222 19.6075C21.4292 15.0367 23.1081 12.27 26.0845 12.27C29.1748 12.27 32.4236 19.1086 35.2812 25.1458C35.6972 26.0227 36.1232 26.9197 36.554 27.8117C25.5893 28.1645 20.3644 30.7749 16.1152 32.9066C13.005 34.4638 10.5486 36.3939 6.50737 36.3939H3.81818V39.2261H6.48261C11.3509 39.2261 14.3868 37.6992 17.6158 36.0765C22.0879 33.839 27.1592 31.3041 39.1144 31.3041H46.0232V28.4719H42.1206C41.7986 28.497 41.4768 28.4467 41.1797 28.3207C40.8825 28.1998 40.6151 28.0082 40.4021 27.7613C39.7186 26.4158 39.05 24.9997 38.3964 23.5836L37.49 21.6989C37.49 21.6989 38.1388 20.9934 39.9316 20.9934H46.256V18.4434Z" fill="#188FFF"/>
</svg>
